<?xml version="1.0" encoding="UTF-8" standalone="no"?>
<!-- Created with Inkscape (http://www.inkscape.org/) -->

<svg
   xmlns:dc="http://purl.org/dc/elements/1.1/"
   xmlns:cc="http://creativecommons.org/ns#"
   xmlns:rdf="http://www.w3.org/1999/02/22-rdf-syntax-ns#"
   xmlns:svg="http://www.w3.org/2000/svg"
   xmlns="http://www.w3.org/2000/svg"
   xmlns:sodipodi="http://sodipodi.sourceforge.net/DTD/sodipodi-0.dtd"
   xmlns:inkscape="http://www.inkscape.org/namespaces/inkscape"
   width="60"
   height="54"
   viewBox="0 0 60.000002 54"
   id="svg2"
   version="1.1"
   inkscape:version="0.91 r13725"
   sodipodi:docname="HeartBeat.svg">
  <defs
     id="defs4" />
  <sodipodi:namedview
     id="base"
     pagecolor="#ffffff"
     bordercolor="#666666"
     borderopacity="1.0"
     inkscape:pageopacity="0.0"
     inkscape:pageshadow="2"
     inkscape:zoom="12.6875"
     inkscape:cx="35.797368"
     inkscape:cy="27.371591"
     inkscape:document-units="px"
     inkscape:current-layer="layer1"
     showgrid="true"
     inkscape:window-width="1680"
     inkscape:window-height="1001"
     inkscape:window-x="0"
     inkscape:window-y="0"
     inkscape:window-maximized="1"
     units="px"
     inkscape:snap-bbox="true"
     inkscape:object-nodes="true">
    <inkscape:grid
       type="xygrid"
       id="grid4134"
       empspacing="0"
       spacingx="0.30000001"
       spacingy="0.3"
       empcolor="#b41b38"
       empopacity="0.25098039" />
  </sodipodi:namedview>
  <metadata
     id="metadata7">
    <rdf:RDF>
      <cc:Work
         rdf:about="">
        <dc:format>image/svg+xml</dc:format>
        <dc:type
           rdf:resource="http://purl.org/dc/dcmitype/StillImage" />
        <dc:title></dc:title>
      </cc:Work>
    </rdf:RDF>
  </metadata>
  <g
     inkscape:label="Calque 1"
     inkscape:groupmode="layer"
     id="layer1"
     transform="translate(0,-998.3622)">
    <path
       style="fill:#ff5555;fill-opacity:1;fill-rule:evenodd;stroke:#550000;stroke-width:0.40600002;stroke-linecap:round;stroke-linejoin:miter;stroke-miterlimit:4;stroke-dasharray:none;stroke-opacity:1"
       d="m 29.879242,1009.7794 c -2.62229,-7.3422 -18.31608,-11.54519 -24.1380607,0.435 -5.82198402,11.9803 15.3622207,32.2318 24.1380607,37.6205 7.7271,-4.313 31.08138,-23.9162 24.35552,-37.1856 -6.72587,-13.26935 -20.05371,-8.3401 -24.35552,-0.8699 z"
       id="path3093"
       inkscape:connector-curvature="0"
       sodipodi:nodetypes="czczc" />
    <path
       style="fill:none;fill-rule:evenodd;stroke:#000000;stroke-width:1px;stroke-linecap:butt;stroke-linejoin:miter;stroke-opacity:1"
       d="m 4.5,1013.3622 1.5,-4.5 4.5,-4.5 4.5,-1.5 4.5,0 4.5,1.5 3,1.5 3,4.5 1.5,-3 3,-3 6,-1.5 4.5,0 4.5,1.5 1.5,1.5 3,4.5 1.5,6 -1.5,6 -4.5,7.5 -6,7.5 -7.5,6 -6,4.5 -6,-4.5 -9,-9 -4.5,-6 -4.5,-7.5 -1.5,-6 z"
       id="path4136"
       inkscape:connector-curvature="0" />
  </g>
</svg>
