<?xml version="1.0" encoding="UTF-8" standalone="no"?>
<!-- Created with Inkscape (http://www.inkscape.org/) -->

<svg
   xmlns:dc="http://purl.org/dc/elements/1.1/"
   xmlns:cc="http://creativecommons.org/ns#"
   xmlns:rdf="http://www.w3.org/1999/02/22-rdf-syntax-ns#"
   xmlns:svg="http://www.w3.org/2000/svg"
   xmlns="http://www.w3.org/2000/svg"
   xmlns:sodipodi="http://sodipodi.sourceforge.net/DTD/sodipodi-0.dtd"
   xmlns:inkscape="http://www.inkscape.org/namespaces/inkscape"
   width="95"
   height="60"
   viewBox="0 0 95.000002 60"
   id="svg2"
   version="1.1"
   inkscape:version="0.91 r13725"
   sodipodi:docname="Weather-04.svg">
  <defs
     id="defs4" />
  <sodipodi:namedview
     id="base"
     pagecolor="#ffffff"
     bordercolor="#666666"
     borderopacity="1.0"
     inkscape:pageopacity="0.0"
     inkscape:pageshadow="2"
     inkscape:zoom="6.34375"
     inkscape:cx="60.588046"
     inkscape:cy="52.717555"
     inkscape:document-units="px"
     inkscape:current-layer="layer1"
     showgrid="true"
     inkscape:window-width="1680"
     inkscape:window-height="1001"
     inkscape:window-x="0"
     inkscape:window-y="0"
     inkscape:window-maximized="1"
     units="px"
     inkscape:snap-bbox="true"
     inkscape:object-nodes="true"
     fit-margin-top="0"
     fit-margin-left="0"
     fit-margin-right="0"
     fit-margin-bottom="0">
    <inkscape:grid
       type="xygrid"
       id="grid4134"
       empspacing="0"
       spacingx="0.30000001"
       spacingy="0.3"
       empcolor="#b41b38"
       empopacity="0.25098039"
       originx="0"
       originy="0" />
  </sodipodi:namedview>
  <metadata
     id="metadata7">
    <rdf:RDF>
      <cc:Work
         rdf:about="">
        <dc:format>image/svg+xml</dc:format>
        <dc:type
           rdf:resource="http://purl.org/dc/dcmitype/StillImage" />
        <dc:title />
      </cc:Work>
    </rdf:RDF>
  </metadata>
  <g
     inkscape:label="Calque 1"
     inkscape:groupmode="layer"
     id="layer1"
     transform="translate(-0.48019445,-992.14282)">
    <path
       style="fill:#aaaaaa;fill-opacity:1;fill-rule:evenodd;stroke:#555555;stroke-width:2;stroke-linecap:butt;stroke-linejoin:miter;stroke-miterlimit:4;stroke-dasharray:none;stroke-opacity:1"
       d="m 3.4801944,1019.1428 1.5,-7.5 4.5000001,-4.4997 7.5000005,-3 4.500001,0 6,3 3,3 1.5,1.4997 6,-1.4997 4.5,0 6,2.9997 3,3 4.5,-1.5 4.5,0 6,3 3,3 1.5,3 1.5,6 -1.5,6 -3,4.5 -4.5,3 -6,1.5 -6,-1.5 -4.5,-3 -6,4.5 -6,1.5 -6,-1.5 -4.5,-3 -3,-4.5 -1.5,-3 -3.000001,0 -4.5,-1.5 -4.5000005,-3 -3.0000001,-4.5 z"
       id="path6169"
       inkscape:connector-curvature="0"
       sodipodi:nodetypes="ccccccccccccccccccccccccccccccccccc" />
    <path
       style="fill:#ffaaff;fill-opacity:1;fill-rule:evenodd;stroke:#aa55aa;stroke-width:2;stroke-linecap:butt;stroke-linejoin:miter;stroke-miterlimit:4;stroke-dasharray:none;stroke-opacity:1"
       d="m 39.480195,1022.1428 -22.499999,13.5 4.499999,1.5 -13.5000003,13.5 25.5000003,-13.5 -4.500001,-1.5 z"
       id="path4250"
       inkscape:connector-curvature="0"
       sodipodi:nodetypes="ccccccc" />
    <path
       sodipodi:nodetypes="ccccccc"
       inkscape:connector-curvature="0"
       id="path4137"
       d="m 55.980195,1022.1428 22.499999,13.5 -4.499999,1.5 13.5,13.5 -25.5,-13.5 4.500001,-1.5 z"
       style="fill:#ffaaff;fill-opacity:1;fill-rule:evenodd;stroke:#aa55aa;stroke-width:2;stroke-linecap:butt;stroke-linejoin:miter;stroke-miterlimit:4;stroke-dasharray:none;stroke-opacity:1" />
    <path
       style="fill:#aaaaaa;fill-opacity:1;fill-rule:evenodd;stroke:#555555;stroke-width:2;stroke-linecap:butt;stroke-linejoin:miter;stroke-miterlimit:4;stroke-dasharray:none;stroke-opacity:1"
       d="m 93.486291,1020.6738 -1.5,7.5 -4.5,4.4998 -7.5,3 -4.500001,0 -6,-3 -3,-3 -1.5,-1.4998 -6,1.4998 -4.5,0 -6,-2.9998 -3,-3 -4.5,1.5 -4.5,0 -6,-3 -3,-3 -1.5,-3 -1.5,-6 1.5,-6 3,-4.49998 4.5,-3 6,-1.5 6,1.5 4.5,3 6,-4.5 6,-1.5 6,1.5 4.5,3 3,4.49998 1.5,3 3.000001,0 4.5,1.5 4.5,3 3,4.5 z"
       id="path5552"
       inkscape:connector-curvature="0"
       sodipodi:nodetypes="ccccccccccccccccccccccccccccccccccc" />
  </g>
</svg>
