<?xml version="1.0" encoding="UTF-8" standalone="no"?>
<!-- Created with Inkscape (http://www.inkscape.org/) -->

<svg
   xmlns:dc="http://purl.org/dc/elements/1.1/"
   xmlns:cc="http://creativecommons.org/ns#"
   xmlns:rdf="http://www.w3.org/1999/02/22-rdf-syntax-ns#"
   xmlns:svg="http://www.w3.org/2000/svg"
   xmlns="http://www.w3.org/2000/svg"
   xmlns:sodipodi="http://sodipodi.sourceforge.net/DTD/sodipodi-0.dtd"
   xmlns:inkscape="http://www.inkscape.org/namespaces/inkscape"
   width="95"
   height="60"
   viewBox="0 0 95.000002 60"
   id="svg2"
   version="1.1"
   inkscape:version="0.91 r13725"
   sodipodi:docname="Weather-80.svg">
  <defs
     id="defs4" />
  <sodipodi:namedview
     id="base"
     pagecolor="#ffffff"
     bordercolor="#666666"
     borderopacity="1.0"
     inkscape:pageopacity="0.0"
     inkscape:pageshadow="2"
     inkscape:zoom="8.9714173"
     inkscape:cx="27.350947"
     inkscape:cy="20.250168"
     inkscape:document-units="px"
     inkscape:current-layer="layer1"
     showgrid="true"
     inkscape:window-width="1680"
     inkscape:window-height="1001"
     inkscape:window-x="0"
     inkscape:window-y="0"
     inkscape:window-maximized="1"
     units="px"
     inkscape:snap-bbox="true"
     inkscape:object-nodes="true"
     fit-margin-top="0"
     fit-margin-left="0"
     fit-margin-right="0"
     fit-margin-bottom="0">
    <inkscape:grid
       type="xygrid"
       id="grid4134"
       empspacing="0"
       spacingx="0.30000001"
       spacingy="0.3"
       empcolor="#b41b38"
       empopacity="0.25098039"
       originx="0"
       originy="0" />
  </sodipodi:namedview>
  <metadata
     id="metadata7">
    <rdf:RDF>
      <cc:Work
         rdf:about="">
        <dc:format>image/svg+xml</dc:format>
        <dc:type
           rdf:resource="http://purl.org/dc/dcmitype/StillImage" />
        <dc:title />
      </cc:Work>
    </rdf:RDF>
  </metadata>
  <g
     inkscape:label="Calque 1"
     inkscape:groupmode="layer"
     id="layer1"
     transform="translate(-0.48019445,-992.14282)">
    <path
       style="fill:none;fill-rule:evenodd;stroke:#aaaaaa;stroke-width:3;stroke-linecap:butt;stroke-linejoin:miter;stroke-miterlimit:4;stroke-dasharray:none;stroke-opacity:1"
       d="m 4.9801937,1002.6428 4.500001,-1.5 4.5000003,-1.49998 4.5,1.49998 4.5,3 4.5,1.5 4.5,-1.5 4.5,-3 4.5,-1.49998 4.5,1.49998 4.5,3 4.5,1.5 4.5,-1.5 4.5,-3 4.5,-1.49998 4.5,1.49998 4.5,3 4.500001,1.5 4.499999,-1.5 4.500001,-1.5"
       id="path4138"
       inkscape:connector-curvature="0"
       sodipodi:nodetypes="cccccccccccccccccccc" />
    <path
       sodipodi:nodetypes="cccccccccccccccccccc"
       inkscape:connector-curvature="0"
       id="path4165"
       d="m 4.9801936,1010.1428 4.500001,-1.5 4.5000004,-1.5 4.5,1.5 4.5,3 4.5,1.5 4.5,-1.5 4.5,-3 4.5,-1.5 4.5,1.5 4.5,3 4.5,1.5 4.5,-1.5 4.5,-3 4.5,-1.5 4.5,1.5 4.5,3 4.500001,1.5 4.499999,-1.5 4.500001,-1.5"
       style="fill:none;fill-rule:evenodd;stroke:#aaaaaa;stroke-width:3;stroke-linecap:butt;stroke-linejoin:miter;stroke-miterlimit:4;stroke-dasharray:none;stroke-opacity:1" />
    <path
       style="fill:none;fill-rule:evenodd;stroke:#aaaaaa;stroke-width:3;stroke-linecap:butt;stroke-linejoin:miter;stroke-miterlimit:4;stroke-dasharray:none;stroke-opacity:1"
       d="m 4.9801935,1017.6428 4.500001,-1.5 4.5000005,-1.5 4.5,1.5 4.5,3 4.5,1.5 4.5,-1.5 4.5,-3 4.5,-1.5 4.5,1.5 4.5,3 4.5,1.5 4.5,-1.5 4.5,-3 4.5,-1.5 4.5,1.5 4.5,3 4.500001,1.5 4.499999,-1.5 4.500001,-1.5"
       id="path4167"
       inkscape:connector-curvature="0"
       sodipodi:nodetypes="cccccccccccccccccccc" />
    <path
       sodipodi:nodetypes="cccccccccccccccccccc"
       inkscape:connector-curvature="0"
       id="path4169"
       d="m 4.9801936,1025.1428 4.500001,-1.5 4.5000004,-1.5 4.5,1.5 4.5,3 4.5,1.5 4.5,-1.5 4.5,-3 4.5,-1.5 4.5,1.5 4.5,3 4.5,1.5 4.5,-1.5 4.5,-3 4.5,-1.5 4.5,1.5 4.5,3 4.500001,1.5 4.499999,-1.5 4.500001,-1.5"
       style="fill:none;fill-rule:evenodd;stroke:#aaaaaa;stroke-width:3;stroke-linecap:butt;stroke-linejoin:miter;stroke-miterlimit:4;stroke-dasharray:none;stroke-opacity:1" />
    <path
       style="fill:none;fill-rule:evenodd;stroke:#aaaaaa;stroke-width:3;stroke-linecap:butt;stroke-linejoin:miter;stroke-miterlimit:4;stroke-dasharray:none;stroke-opacity:1"
       d="m 4.9801935,1032.6428 4.500001,-1.5 4.5000005,-1.5 4.5,1.5 4.5,3 4.5,1.5 4.5,-1.5 4.5,-3 4.5,-1.5 4.5,1.5 4.5,3 4.5,1.5 4.5,-1.5 4.5,-3 4.5,-1.5 4.5,1.5 4.5,3 4.500001,1.5 4.499999,-1.5 4.500001,-1.5"
       id="path4171"
       inkscape:connector-curvature="0"
       sodipodi:nodetypes="cccccccccccccccccccc" />
    <path
       sodipodi:nodetypes="cccccccccccccccccccc"
       inkscape:connector-curvature="0"
       id="path4173"
       d="m 4.9801934,1040.1428 4.500001,-1.5 4.5000006,-1.5 4.5,1.5 4.5,3 4.5,1.5 4.5,-1.5 4.5,-3 4.5,-1.5 4.5,1.5 4.5,3 4.5,1.5 4.5,-1.5 4.5,-3 4.5,-1.5 4.5,1.5 4.5,3 4.500001,1.5 4.499999,-1.5 4.500001,-1.5"
       style="fill:none;fill-rule:evenodd;stroke:#aaaaaa;stroke-width:3;stroke-linecap:butt;stroke-linejoin:miter;stroke-miterlimit:4;stroke-dasharray:none;stroke-opacity:1" />
  </g>
</svg>
