<?xml version="1.0" encoding="UTF-8" standalone="no"?>
<!-- Created with Inkscape (http://www.inkscape.org/) -->

<svg
   xmlns:dc="http://purl.org/dc/elements/1.1/"
   xmlns:cc="http://creativecommons.org/ns#"
   xmlns:rdf="http://www.w3.org/1999/02/22-rdf-syntax-ns#"
   xmlns:svg="http://www.w3.org/2000/svg"
   xmlns="http://www.w3.org/2000/svg"
   xmlns:sodipodi="http://sodipodi.sourceforge.net/DTD/sodipodi-0.dtd"
   xmlns:inkscape="http://www.inkscape.org/namespaces/inkscape"
   width="95"
   height="60"
   viewBox="0 0 95.000002 60"
   id="svg2"
   version="1.1"
   inkscape:version="0.91 r13725"
   sodipodi:docname="Weather.svg">
  <defs
     id="defs4" />
  <sodipodi:namedview
     id="base"
     pagecolor="#ffffff"
     bordercolor="#666666"
     borderopacity="1.0"
     inkscape:pageopacity="0.0"
     inkscape:pageshadow="2"
     inkscape:zoom="12.6875"
     inkscape:cx="48.219933"
     inkscape:cy="30.443894"
     inkscape:document-units="px"
     inkscape:current-layer="layer1"
     showgrid="true"
     inkscape:window-width="1680"
     inkscape:window-height="1001"
     inkscape:window-x="0"
     inkscape:window-y="0"
     inkscape:window-maximized="1"
     units="px"
     inkscape:snap-bbox="true"
     inkscape:object-nodes="true"
     fit-margin-top="0"
     fit-margin-left="0"
     fit-margin-right="0"
     fit-margin-bottom="0">
    <inkscape:grid
       type="xygrid"
       id="grid4134"
       empspacing="0"
       spacingx="0.30000001"
       spacingy="0.3"
       empcolor="#b41b38"
       empopacity="0.25098039"
       originx="0"
       originy="0" />
  </sodipodi:namedview>
  <metadata
     id="metadata7">
    <rdf:RDF>
      <cc:Work
         rdf:about="">
        <dc:format>image/svg+xml</dc:format>
        <dc:type
           rdf:resource="http://purl.org/dc/dcmitype/StillImage" />
        <dc:title></dc:title>
      </cc:Work>
    </rdf:RDF>
  </metadata>
  <g
     inkscape:label="Calque 1"
     inkscape:groupmode="layer"
     id="layer1"
     transform="translate(-0.48019445,-992.14282)">
    <path
       style="fill:#ffff00;fill-rule:evenodd;stroke:#ffaa00;stroke-width:1;stroke-linecap:butt;stroke-linejoin:miter;stroke-miterlimit:4;stroke-dasharray:none;stroke-opacity:1;fill-opacity:1"
       d="m 48.480195,1020.6428 0,-5.3571 1.5,-5.1429 4.5,-5.8571 7.5,-3.1429 6,0 7.5,3.1429 4.5,5.8571 1.5,4.5 0,6 -1.5,4.5 -4.5,5.8572 -7.5,3.1428 -6,0 -7.5,-3.1428 -4.5,-5.8572 z"
       id="path4254"
       inkscape:connector-curvature="0"
       sodipodi:nodetypes="ccccccccccccccccc" />
    <path
       style="fill:#55aaff;fill-rule:evenodd;stroke:#0055ff;stroke-width:1px;stroke-linecap:butt;stroke-linejoin:miter;stroke-opacity:1;fill-opacity:1"
       d="m 12.480195,1046.1428 -1.5,-1.5 0,-1.5 1.5,-1.5 1.5,-1.5 1.5,-1.5 0,3 0,3 -1.5,1.5 z"
       id="path4230"
       inkscape:connector-curvature="0" />
    <path
       inkscape:connector-curvature="0"
       id="path4232"
       d="m 21.480195,1040.1428 -1.5,-1.5 0,-1.5 1.5,-1.5 1.5,-1.5 1.5,-1.5 0,3 0,3 -1.5,1.5 z"
       style="fill:#55aaff;fill-rule:evenodd;stroke:#0055ff;stroke-width:1px;stroke-linecap:butt;stroke-linejoin:miter;stroke-opacity:1;fill-opacity:1" />
    <path
       style="fill:#55aaff;fill-rule:evenodd;stroke:#0055ff;stroke-width:1px;stroke-linecap:butt;stroke-linejoin:miter;stroke-opacity:1;fill-opacity:1"
       d="m 24.480195,1050.6428 -1.5,-1.5 0,-1.5 1.5,-1.5 1.5,-1.5 1.5,-1.5 0,3 0,3 -1.5,1.5 z"
       id="path4234"
       inkscape:connector-curvature="0" />
    <path
       inkscape:connector-curvature="0"
       id="path4236"
       d="m 33.480195,1047.6428 -1.5,-1.5 0,-1.5 1.5,-1.5 1.5,-1.5 1.5,-1.5 0,3 0,3 -1.5,1.5 z"
       style="fill:#55aaff;fill-rule:evenodd;stroke:#0055ff;stroke-width:1px;stroke-linecap:butt;stroke-linejoin:miter;stroke-opacity:1;fill-opacity:1" />
    <path
       style="fill:#55aaff;fill-rule:evenodd;stroke:#0055ff;stroke-width:1px;stroke-linecap:butt;stroke-linejoin:miter;stroke-opacity:1;fill-opacity:1"
       d="m 42.480195,1050.6428 -1.5,-1.5 0,-1.5 1.5,-1.5 1.5,-1.5 1.5,-1.5 0,3 0,3 -1.5,1.5 z"
       id="path4238"
       inkscape:connector-curvature="0" />
    <path
       inkscape:connector-curvature="0"
       id="path4240"
       d="m 54.480195,1049.1428 -1.5,-1.5 0,-1.5 1.5,-1.5 1.5,-1.5 1.5,-1.5 0,3 0,3 -1.5,1.5 z"
       style="fill:#55aaff;fill-rule:evenodd;stroke:#0055ff;stroke-width:1px;stroke-linecap:butt;stroke-linejoin:miter;stroke-opacity:1;fill-opacity:1" />
    <path
       style="fill:#ffaaff;fill-rule:evenodd;stroke:#aa55aa;stroke-width:1px;stroke-linecap:butt;stroke-linejoin:miter;stroke-opacity:1;fill-opacity:1"
       d="m 51.480196,1023.6428 -15,13.5 4.499999,1.5 -10.499999,12 18,-12 -4.500001,-1.5 z"
       id="path4250"
       inkscape:connector-curvature="0"
       sodipodi:nodetypes="ccccccc" />
    <path
       style="fill:#aaaaaa;fill-opacity:1;fill-rule:evenodd;stroke:#555555;stroke-width:1;stroke-linecap:butt;stroke-linejoin:miter;stroke-miterlimit:4;stroke-dasharray:none;stroke-opacity:1"
       d="m 7.9801938,1010.1428 4.5000012,-1.4999 4.500001,0 3,-1.5 4.5,0 4.499999,2.9999 3.000001,4.5 3,-1.5 4.5,0 4.5,3 1.5,3 1.5,0 3,-1.5 6,0 4.5,3 1.5,3 3,0 3,1.5 3,4.5 0,4.5 -3,4.5 -3,1.5 -4.5,0 -3,1.5 -4.5,1.5 -6,0 -6,3 -6,0 -4.5,-1.5 -1.5,-1.5 -3.000001,0 -4.5,1.5 -3,0 -4.5,-3 -3,-6 0,-4.5 -6.0000012,-3 -2.999999,-4.5 0,-7.5 z"
       id="path4252"
       inkscape:connector-curvature="0"
       sodipodi:nodetypes="cccccccccccccccccccccccccccccccccccccccc" />
    <path
       style="fill:#ffff00;fill-rule:evenodd;stroke:#ffaa00;stroke-width:1;stroke-linecap:butt;stroke-linejoin:miter;stroke-miterlimit:4;stroke-dasharray:none;stroke-opacity:1;fill-opacity:1"
       d="m 63.480195,998.14282 3,0 -1.5,-4.5 z"
       id="path4258"
       inkscape:connector-curvature="0"
       sodipodi:nodetypes="cccc" />
    <path
       style="fill:#ffff00;fill-rule:evenodd;stroke:#ffaa00;stroke-width:1;stroke-linecap:butt;stroke-linejoin:miter;stroke-miterlimit:4;stroke-dasharray:none;stroke-opacity:1;fill-opacity:1"
       d="m 81.480195,1007.1428 -3,-4.5 6,-1.5 z"
       id="path4262"
       inkscape:connector-curvature="0"
       sodipodi:nodetypes="cccc" />
    <path
       style="fill:#ffff00;fill-rule:evenodd;stroke:#ffaa00;stroke-width:1;stroke-linecap:butt;stroke-linejoin:miter;stroke-miterlimit:4;stroke-dasharray:none;stroke-opacity:1;fill-opacity:1"
       d="m 84.480195,1019.1428 4.500001,-1.5 -4.500001,-1.5 z"
       id="path4264"
       inkscape:connector-curvature="0"
       sodipodi:nodetypes="cccc" />
    <path
       sodipodi:nodetypes="cccc"
       inkscape:connector-curvature="0"
       id="path4266"
       d="m 48.480195,1007.1428 3,-4.5 -6,-1.5 z"
       style="fill:#ffff00;fill-rule:evenodd;stroke:#ffaa00;stroke-width:1;stroke-linecap:butt;stroke-linejoin:miter;stroke-miterlimit:4;stroke-dasharray:none;stroke-opacity:1;fill-opacity:1" />
    <path
       sodipodi:nodetypes="cccccccccccccccccccccccccccccccccccccccc"
       inkscape:connector-curvature="0"
       id="path4270"
       d="m 31.980195,996.64286 4.5,-1.49998 4.500001,0 3,-1.5 4.5,0 4.499999,2.99998 3.000001,4.49994 3,-1.49996 4.5,0 4.5,2.99996 1.5,3 1.5,0 3,-1.5 6,0 4.5,3 1.5,3 3,0 3,1.5 3,4.5 0,4.5 -3,4.5 -3,1.5 -4.5,0 -3,1.5 -4.5,1.5 -6,0 -6,3 -6,0 -4.5,-1.5 -1.5,-1.5 -3.000001,0 -4.5,1.5 -3,0 -4.5,-3 -3,-6 0,-4.5 -6,-3 -2.999999,-4.5 0,-7.5 z"
       style="fill:#aaaaaa;fill-opacity:1;fill-rule:evenodd;stroke:#555555;stroke-width:1;stroke-linecap:butt;stroke-linejoin:miter;stroke-miterlimit:4;stroke-dasharray:none;stroke-opacity:1" />
  </g>
</svg>
